<svg width="76" height="60" viewBox="0 0 76 60" fill="none" xmlns="http://www.w3.org/2000/svg">
<path d="M13.8171 59.7012V55.73C13.8171 54.2074 12.9045 53.2148 11.3403 53.2148C10.5583 53.2148 9.71106 53.4796 9.12444 54.3401C8.66844 53.6119 8.0168 53.2148 7.03919 53.2148C6.38725 53.2148 5.73591 53.4132 5.2143 54.1414V53.3472H3.8457V59.7012H5.2143V56.1931C5.2143 55.0682 5.80092 54.5385 6.71352 54.5385C7.62552 54.5385 8.08211 55.1342 8.08211 56.1931V59.7012H9.4507V56.1931C9.4507 55.0682 10.102 54.5385 10.9493 54.5385C11.8619 54.5385 12.3179 55.1342 12.3179 56.1931V59.7012H13.8171ZM34.0851 53.3472H31.8695V51.4278H30.5009V53.3472H29.2627V54.6045H30.5006V57.5171C30.5006 58.9733 31.0873 59.8335 32.6515 59.8335C33.2381 59.8335 33.8895 59.6351 34.3461 59.3704L33.9548 58.1789C33.5638 58.4436 33.1078 58.5099 32.7818 58.5099C32.1302 58.5099 31.8695 58.1128 31.8695 57.4507V54.6045H34.0851V53.3472ZM45.6858 53.2145C44.9038 53.2145 44.3825 53.6119 44.0565 54.1414V53.3472H42.6879V59.7012H44.0565V56.1271C44.0565 55.0682 44.5125 54.4724 45.3598 54.4724C45.6205 54.4724 45.9464 54.5388 46.2071 54.6048L46.5981 53.2812C46.3374 53.2148 45.9464 53.2148 45.6858 53.2148V53.2145ZM28.1547 53.8767C27.5028 53.4132 26.5905 53.2148 25.6129 53.2148C24.0489 53.2148 23.0063 54.009 23.0063 55.2666C23.0063 56.3258 23.7883 56.9213 25.1569 57.12L25.8085 57.1863C26.5255 57.3184 26.9165 57.5171 26.9165 57.8481C26.9165 58.3112 26.3951 58.6423 25.4826 58.6423C24.5703 58.6423 23.8533 58.3112 23.397 57.9805L22.7454 59.0394C23.4623 59.5688 24.4399 59.8335 25.4172 59.8335C27.2421 59.8335 28.2851 58.9733 28.2851 57.7818C28.2851 56.6566 27.4378 56.0608 26.1342 55.8624L25.4826 55.7961C24.8959 55.7297 24.4399 55.5977 24.4399 55.2006C24.4399 54.7372 24.8959 54.4724 25.6129 54.4724C26.3951 54.4724 27.1771 54.8032 27.5681 55.0019L28.1547 53.8767ZM64.5204 53.2148C63.7382 53.2148 63.2169 53.6119 62.8909 54.1414V53.3472H61.5223V59.7012H62.8909V56.1271C62.8909 55.0682 63.3472 54.4724 64.1942 54.4724C64.4551 54.4724 64.7811 54.5388 65.0417 54.6048L65.4327 53.2812C65.1721 53.2148 64.7811 53.2148 64.5204 53.2148ZM47.0544 56.5242C47.0544 58.4436 48.3577 59.8335 50.3782 59.8335C51.2905 59.8335 51.9421 59.6351 52.5938 59.1057L51.9421 57.9805C51.4208 58.3776 50.8995 58.576 50.3129 58.576C49.2049 58.576 48.423 57.7818 48.423 56.5242C48.423 55.3329 49.2049 54.5385 50.3129 54.4724C50.8995 54.4724 51.4208 54.6708 51.9421 55.0682L52.5938 53.943C51.9421 53.4132 51.2905 53.2148 50.3782 53.2148C48.3577 53.2148 47.0544 54.6048 47.0544 56.5242ZM59.6977 56.5242V53.3472H58.3291V54.1414C57.8728 53.5459 57.2212 53.2148 56.3739 53.2148C54.6143 53.2148 53.2457 54.6048 53.2457 56.5242C53.2457 58.4436 54.6143 59.8335 56.3739 59.8335C57.2862 59.8335 57.9381 59.5028 58.3291 58.907V59.7012H59.6977V56.5242ZM54.6793 56.5242C54.6793 55.399 55.3963 54.4724 56.5692 54.4724C57.6772 54.4724 58.4594 55.3329 58.4594 56.5242C58.4594 57.6494 57.6772 58.576 56.5692 58.576C55.3963 58.5096 54.6793 57.6494 54.6793 56.5242ZM38.3215 53.2148C36.4966 53.2148 35.193 54.5385 35.193 56.5242C35.193 58.5099 36.4963 59.8335 38.3865 59.8335C39.2988 59.8335 40.2114 59.5688 40.9284 58.9733L40.2764 57.9805C39.7551 58.3776 39.1035 58.6423 38.4518 58.6423C37.6046 58.6423 36.7573 58.2452 36.5616 57.1197H41.189V56.5905C41.2543 54.5385 40.0811 53.2148 38.3212 53.2148H38.3215ZM38.3215 54.4061C39.1685 54.4061 39.7554 54.9358 39.8854 55.9287H36.6269C36.7573 55.0682 37.3439 54.4061 38.3215 54.4061ZM72.2757 56.5242V50.832H70.9071V54.1414C70.4508 53.5459 69.7992 53.2148 68.9519 53.2148C67.1923 53.2148 65.8237 54.6048 65.8237 56.5242C65.8237 58.4436 67.1923 59.8335 68.9519 59.8335C69.8645 59.8335 70.5161 59.5028 70.9071 58.907V59.7012H72.2757V56.5242ZM67.2576 56.5242C67.2576 55.399 67.9743 54.4724 69.1475 54.4724C70.2555 54.4724 71.0374 55.3329 71.0374 56.5242C71.0374 57.6494 70.2555 58.576 69.1475 58.576C67.9743 58.5096 67.2576 57.6494 67.2576 56.5242ZM21.5071 56.5242V53.3472H20.1385V54.1414C19.6822 53.5459 19.0306 53.2148 18.1833 53.2148C16.4237 53.2148 15.0551 54.6048 15.0551 56.5242C15.0551 58.4436 16.4237 59.8335 18.1833 59.8335C19.0959 59.8335 19.7475 59.5028 20.1385 58.907V59.7012H21.5071V56.5242ZM16.4237 56.5242C16.4237 55.399 17.1407 54.4724 18.3136 54.4724C19.4216 54.4724 20.2038 55.3329 20.2038 56.5242C20.2038 57.6494 19.4216 58.576 18.3136 58.576C17.1407 58.5096 16.4237 57.6494 16.4237 56.5242Z" fill="black"/>
<path d="M27.6973 5.0957H48.2262V42.5583H27.6973V5.0957Z" fill="#FF5F00"/>
<path d="M29.0014 23.8278C29.0014 16.2163 32.5206 9.46492 37.9296 5.09638C33.9545 1.9194 28.9364 0 23.462 0C10.4925 0 0 10.6562 0 23.8278C0 36.9992 10.4925 47.6557 23.4617 47.6557C28.9361 47.6557 33.9542 45.7363 37.9296 42.559C32.5206 38.2568 29.0014 31.4394 29.0014 23.8278Z" fill="#EB001B"/>
<path d="M75.9238 23.8278C75.9238 36.9992 65.4313 47.6557 52.462 47.6557C46.9877 47.6557 41.9696 45.7363 37.9941 42.559C43.4685 38.1908 46.9227 31.4394 46.9227 23.8278C46.9227 16.2163 43.4032 9.46492 37.9941 5.09638C41.9693 1.9194 46.9877 0 52.462 0C65.4313 0 75.9241 10.7225 75.9241 23.8278H75.9238Z" fill="#F79E1B"/>
</svg>
